<svg width="39" height="48" viewBox="0 0 39 48" fill="none" xmlns="http://www.w3.org/2000/svg">
<path d="M9.34487 18.7145L17.3506 0.275467H20.0364V5.49211L14.3549 18.7145H18.5902V16.3386C18.5902 15.7601 19.5543 15.7188 20.0364 15.7704V23.0531C18.7142 23.0531 18.5213 22.6055 18.5902 22.3816V20.3156H13.5802L1.18418 48H0.71933L3.86998 38.4448C3.86998 38.4448 1.08088 37.3601 2.01058 35.0359C2.94028 32.7116 8.51847 20.3156 8.51847 20.3156H2.01058V18.7145H9.34487Z" fill="#FF9900"/>
<path d="M30.2114 18.7145L22.2057 0.275467H19.5199V5.49211L25.2014 18.7145H20.9661V16.3386C20.9661 15.7601 20.002 15.7188 19.5199 15.7704V23.0531C20.8421 23.0531 21.035 22.6055 20.9661 22.3816V20.3156H25.9761L38.3721 48H38.837L35.6863 38.4448C35.6863 38.4448 38.4754 37.3601 37.5457 35.0359C36.616 32.7116 31.0378 20.3156 31.0378 20.3156H37.5457V18.7145H30.2114Z" fill="#FF9900"/>
</svg>
